PathFileType	4	(X/Y/Z)	subject01_synthetic_marker_data.trc
DataRate	CameraRate	NumFrames	NumMarkers	Units	OrigDataRate	OrigDataStartFrame	OrigNumFrames
60.000000	60.000000	10	31	m	60.000000	19	73
Frame#	Time		Sternum		R.Acromium		L.Acromium		Top.Head		R.ASIS		L.ASIS		V.Sacral		R.Thigh.Upper		R.Thigh.Front		R.Thigh.Rear		R.Shank.Upper		R.Shank.Front		R.Shank.Rear		R.Heel		R.Midfoot.Sup		R.Midfoot.Lat		R.Toe.Lat		R.Toe.Med		R.Toe.Tip		L.Thigh.Upper		L.Thigh.Front		L.Thigh.Rear		L.Shank.Upper		L.Shank.Front		L.Shank.Rear		L.Heel		L.Midfoot.Sup		L.Midfoot.Lat		L.Toe.Lat		L.Toe.Med		L.Toe.Tip
			X1	Y1	Z1	X2	Y2	Z2	X3	Y3	Z3	X4	Y4	Z4	X5	Y5	Z5	X6	Y6	Z6	X7	Y7	Z7	X8	Y8	Z8	X9	Y9	Z9	X10	Y10	Z10	X11	Y11	Z11	X12	Y12	Z12	X13	Y13	Z13	X14	Y14	Z14	X15	Y15	Z15	X16	Y16	Z16	X17	Y17	Z17	X18	Y18	Z18	X19	Y19	Z19	X20	Y20	Z20	X21	Y21	Z21	X22	Y22	Z22	X23	Y23	Z23	X24	Y24	Z24	X25	Y25	Z25	X26	Y26	Z26	X27	Y27	Z27	X28	Y28	Z28	X29	Y29	Z29	X30	Y30	Z30	X31	Y31	Z31

19	0.7	0.66674	1.3591	0.015947	0.56149	1.5034	0.17798	0.58705	1.5139	-0.16211	0.72144	1.7442	0.026252	0.62294	1.0409	0.12945	0.61442	1.041	-0.1327	0.42083	1.0344	0.01606	0.66354	0.7532	0.18511	0.75321	0.72637	0.09874	0.70759	0.64023	0.177	0.70808	0.45704	0.16293	0.79473	0.43523	0.11862	0.73681	0.37513	0.17417	0.72902	0.062641	0.09251	0.87068	0.098242	0.068109	0.86239	0.069346	0.17317	0.95454	0.058536	0.18698	0.96035	0.079913	0.080053	1.0186	0.087551	0.11575	0.48639	0.72981	-0.17649	0.55609	0.66579	-0.10882	0.44663	0.62876	-0.15922	0.34437	0.44345	-0.15272	0.35927	0.37529	-0.10121	0.30606	0.41679	-0.16147	0.077756	0.15451	-0.071508	0.24102	0.10069	-0.041599	0.22022	0.089082	-0.13857	0.26981	0.04326	-0.14323	0.2903	0.056125	-0.042667	0.33573	0.034886	-0.066175
20	0.717	0.6683	1.361	0.021007	0.56228	1.5034	0.18417	0.58817	1.5171	-0.15578	0.72142	1.7463	0.034743	0.6263	1.0435	0.13159	0.61682	1.0422	-0.13053	0.42382	1.0354	0.018975	0.66728	0.75478	0.18758	0.75646	0.72766	0.10079	0.71097	0.64168	0.1793	0.70894	0.45925	0.16518	0.79433	0.4338	0.12036	0.73413	0.37613	0.17606	0.71232	0.064365	0.093661	0.85523	0.094069	0.068634	0.84625	0.06529	0.17367	0.93793	0.050602	0.18699	0.9441	0.071976	0.080091	1.0028	0.077085	0.11552	0.49366	0.73039	-0.17407	0.56458	0.66757	-0.10655	0.45591	0.62852	-0.1571	0.35389	0.44387	-0.15136	0.36467	0.37469	-0.10016	0.31413	0.41951	-0.16036	0.071117	0.17207	-0.072702	0.22941	0.1054	-0.041984	0.20832	0.095634	-0.1391	0.25414	0.046025	-0.14357	0.27501	0.057065	-0.042864	0.31874	0.032321	-0.066159
21	0.733	0.66957	1.3628	0.025212	0.56367	1.504	0.1896	0.58834	1.5197	-0.15035	0.72152	1.7482	0.041103	0.6288	1.0455	0.13449	0.61866	1.0435	-0.1276	0.42605	1.0366	0.022408	0.66948	0.75585	0.19045	0.75825	0.7284	0.10334	0.71267	0.64257	0.18197	0.7081	0.46091	0.16764	0.79218	0.43209	0.1224	0.72986	0.37679	0.17817	0.69513	0.065895	0.094835	0.83891	0.090818	0.069526	0.8292	0.062152	0.17453	0.92037	0.044358	0.18761	0.92701	0.065721	0.080731	0.98593	0.06878	0.11603	0.50288	0.73102	-0.17159	0.57645	0.67047	-0.10484	0.46896	0.62775	-0.15497	0.36924	0.44328	-0.14988	0.37545	0.37311	-0.099295	0.32791	0.42174	-0.15896	0.06963	0.1928	-0.072925	0.22067	0.11094	-0.042439	0.19877	0.10361	-0.13958	0.23955	0.049794	-0.14423	0.26135	0.058394	-0.043489	0.30248	0.029593	-0.06687
22	0.75	0.67106	1.3652	0.030002	0.56395	1.5052	0.19451	0.59007	1.5225	-0.14526	0.7216	1.7507	0.047753	0.63151	1.0482	0.13739	0.62112	1.0448	-0.12467	0.42867	1.0383	0.025557	0.6702	0.75631	0.19351	0.75852	0.72792	0.10626	0.71195	0.64251	0.18476	0.70403	0.46146	0.17001	0.78698	0.42985	0.12455	0.72282	0.37659	0.18022	0.67737	0.066575	0.095724	0.82172	0.088078	0.070584	0.81124	0.05948	0.17553	0.90193	0.039479	0.18866	0.90919	0.060853	0.081825	0.96813	0.062437	0.11718	0.51326	0.73234	-0.16974	0.59032	0.67441	-0.10462	0.48406	0.62756	-0.15367	0.38781	0.44322	-0.14917	0.38988	0.37217	-0.099474	0.34503	0.4246	-0.15799	0.074411	0.21585	-0.071949	0.21537	0.11719	-0.042939	0.19202	0.11279	-0.13992	0.22636	0.054694	-0.14507	0.24978	0.060359	-0.044478	0.28718	0.02715	-0.068279
23	0.767	0.67247	1.3675	0.033542	0.56569	1.5063	0.19931	0.59034	1.5257	-0.14046	0.72211	1.753	0.05332	0.63369	1.0507	0.14009	0.6229	1.0457	-0.12194	0.43067	1.0404	0.028621	0.6696	0.75654	0.19636	0.75732	0.72703	0.10887	0.70961	0.64214	0.18726	0.69815	0.46167	0.17206	0.77995	0.42757	0.12632	0.71421	0.3762	0.18193	0.65915	0.066848	0.096309	0.80384	0.086148	0.071362	0.79279	0.05765	0.17628	0.88315	0.036252	0.18951	0.89087	0.057578	0.082695	0.94978	0.058236	0.11812	0.52382	0.7344	-0.16905	0.60534	0.67972	-0.10661	0.5006	0.628	-0.15396	0.40964	0.44356	-0.15012	0.40818	0.37174	-0.10152	0.36556	0.42788	-0.15823	0.086289	0.23993	-0.069819	0.21419	0.12417	-0.043641	0.18868	0.12314	-0.14018	0.21532	0.061202	-0.14607	0.24112	0.063455	-0.045926	0.27358	0.025894	-0.070486
24	0.783	0.67291	1.3696	0.036468	0.56697	1.5076	0.20347	0.58956	1.5284	-0.13636	0.72223	1.7551	0.057593	0.63435	1.0537	0.14322	0.62346	1.0461	-0.11873	0.43128	1.0426	0.031932	0.66661	0.75642	0.19968	0.7536	0.72554	0.11193	0.70434	0.6413	0.19005	0.68906	0.46127	0.17411	0.76992	0.42536	0.12808	0.70303	0.37538	0.18358	0.64067	0.06673	0.096545	0.78557	0.084704	0.071821	0.77411	0.056126	0.17667	0.86425	0.03385	0.18998	0.87231	0.055291	0.083215	0.93118	0.055329	0.11872	0.53342	0.73713	-0.16876	0.61967	0.68606	-0.10971	0.51674	0.62929	-0.15524	0.43242	0.44469	-0.15247	0.4283	0.37219	-0.10503	0.38731	0.43164	-0.15954	0.10361	0.26229	-0.066847	0.21705	0.13167	-0.044189	0.18903	0.13412	-0.14	0.20772	0.06941	-0.14663	0.23629	0.06813	-0.047224	0.26324	0.026972	-0.072668
25	0.8	0.6731	1.3716	0.038768	0.56837	1.5086	0.20734	0.58804	1.5312	-0.13256	0.72201	1.757	0.061372	0.63453	1.0572	0.14649	0.62434	1.0462	-0.11538	0.43176	1.0445	0.034816	0.6633	0.75639	0.20295	0.74935	0.72409	0.11479	0.69857	0.64055	0.19269	0.67935	0.46102	0.176	0.7592	0.42343	0.12955	0.69132	0.37479	0.18503	0.62195	0.066734	0.096618	0.76696	0.083948	0.071974	0.7553	0.055287	0.17678	0.84531	0.032498	0.19009	0.85352	0.054044	0.08336	0.91238	0.05371	0.11889	0.5429	0.74039	-0.16902	0.63363	0.6931	-0.11365	0.53279	0.6315	-0.15754	0.45566	0.44687	-0.15626	0.44966	0.37382	-0.1099	0.40979	0.43605	-0.16208	0.12459	0.28175	-0.063805	0.22459	0.14003	-0.044846	0.19392	0.14571	-0.1397	0.2056	0.079439	-0.14695	0.23704	0.074851	-0.048519	0.25877	0.031222	-0.07483
26	0.817	0.67226	1.3745	0.04176	0.56714	1.511	0.21055	0.58653	1.534	-0.12933	0.71981	1.7601	0.064782	0.63471	1.0614	0.14976	0.62455	1.0468	-0.11193	0.43196	1.0469	0.038259	0.65867	0.75628	0.20644	0.74356	0.7221	0.11787	0.69073	0.63957	0.19548	0.66702	0.46045	0.17793	0.74609	0.42172	0.13109	0.67753	0.37398	0.18653	0.60312	0.066495	0.096742	0.74818	0.083358	0.072169	0.73642	0.054511	0.17691	0.82636	0.031445	0.1902	0.83466	0.053191	0.083514	0.89351	0.052619	0.11906	0.55138	0.74452	-0.16874	0.64582	0.70102	-0.11656	0.54733	0.63504	-0.15941	0.47733	0.45045	-0.15985	0.47016	0.37697	-0.11433	0.43098	0.44125	-0.16451	0.14548	0.29702	-0.060814	0.23629	0.14884	-0.045254	0.20334	0.15705	-0.13916	0.21036	0.090195	-0.14696	0.24426	0.083002	-0.049506	0.26226	0.038161	-0.076585
27	0.833	0.67169	1.3774	0.043381	0.56796	1.5134	0.21336	0.58419	1.537	-0.12665	0.71896	1.763	0.066612	0.63437	1.0653	0.15284	0.62434	1.0485	-0.10873	0.43169	1.0495	0.041383	0.65353	0.75625	0.2092	0.7372	0.72017	0.12023	0.68237	0.63876	0.19764	0.65422	0.46012	0.17941	0.73255	0.42031	0.13222	0.66338	0.37347	0.18766	0.58422	0.066519	0.0968	0.72932	0.08307	0.072258	0.71749	0.054116	0.17696	0.80737	0.03082	0.19022	0.81573	0.052683	0.08357	0.87457	0.051926	0.11911	0.55931	0.74951	-0.16855	0.65678	0.70997	-0.11885	0.56093	0.63982	-0.16106	0.49807	0.45525	-0.16301	0.49032	0.38151	-0.11802	0.45143	0.44711	-0.1667	0.16563	0.30849	-0.057913	0.25254	0.15769	-0.045513	0.21768	0.16756	-0.13857	0.22262	0.10059	-0.147	0.25853	0.091689	-0.050413	0.27462	0.046568	-0.078219
28	0.85	0.67133	1.3802	0.044532	0.56891	1.5163	0.21523	0.58262	1.5398	-0.12489	0.71889	1.7658	0.067294	0.6335	1.0691	0.15598	0.62433	1.051	-0.10552	0.43121	1.0524	0.043978	0.64724	0.75617	0.21162	0.72961	0.71797	0.12232	0.67251	0.63792	0.19951	0.63974	0.45976	0.18061	0.71752	0.41918	0.13317	0.64788	0.37298	0.18858	0.56525	0.066517	0.096764	0.71039	0.082856	0.072317	0.69845	0.053783	0.17698	0.78829	0.030318	0.19025	0.79675	0.052309	0.083631	0.85557	0.051405	0.1192	0.56734	0.7548	-0.16776	0.66714	0.71936	-0.11962	0.57424	0.64523	-0.16164	0.51841	0.46058	-0.16474	0.51056	0.3867	-0.11998	0.47164	0.45295	-0.16774	0.18518	0.31604	-0.054977	0.27286	0.1655	-0.04532	0.23663	0.17613	-0.13776	0.24171	0.10927	-0.14693	0.27905	0.099575	-0.050958	0.29492	0.054796	-0.079436
